<svg xmlns="http://www.w3.org/2000/svg" viewBox="0 0 2642.7 427.59"><defs><style>.cls-1{isolation:isolate;}.cls-11,.cls-2{fill:#fff;}.cls-2{stroke:#eceae2;stroke-width:2.25px;}.cls-2,.cls-3{stroke-miterlimit:10;}.cls-2,.cls-3,.cls-4,.cls-5,.cls-7,.cls-8,.cls-9{fill-rule:evenodd;}.cls-3{fill:#eceae2;stroke:#c9c9c9;stroke-width:2.07px;}.cls-4,.cls-7{fill:#e3b909;}.cls-5{fill:#c9c9c9;}.cls-6,.cls-8{fill:#b87537;}.cls-7{opacity:0.4;mix-blend-mode:multiply;}.cls-10,.cls-9{fill:#f9f9f6;opacity:0.9;}</style></defs><title>logo_happy_beer_long</title><g class="cls-1"><g id="objects"><path class="cls-2" d="M39.84,174.57c1.17-10.32-.33-20.78.83-31.09.83-7.32,1.65-14.8.08-22-3.89-17.8-21.36-30-26.05-47.61A35.88,35.88,0,0,1,14.58,56c1.8-7.13,7.37-14.5,14.7-14,6.9.5,11.31,7.6,13.4,14.2s3.31,14,8.38,18.71c10.07,9.36,27.18,1.81,39.71,7.48,5.95,2.69,10.15,8.06,14.64,12.8a9.93,9.93,0,0,0,4.26,3.07c6.5,1.82,10.4-8.76,17.14-9.23,4.87-.34,8.22,4.64,12.43,7.11,5.7,3.35,12.92,2,19.36,3.44,7.14,1.64,13.07,6.83,17.14,12.91s6.55,13.09,9,20c1.73,4.9,3.32,10.79.17,14.92-1.9,2.49-5.06,3.61-8.08,4.49-24,7-49.65,6.25-74,12C95.22,165.62,87.75,168,80,169.18c-14,2.09-28.62,0-42,4.52"/><path class="cls-3" d="M36.57,168.83c1,5.43,19.48,54.25,29.07,106.88s17.19,115,17.54,124S83,413.63,89,414.29c23.18,2.51,52.47,1,83.17-6.38,23.8-5.72,46-12.63,49.7-16.87s-4.47-26.52-4.47-26.52,39.08-18.76,43.06-59.1S248,198.09,234.05,179.51c-18.88-25.2-44.64-8.16-44.64-8.16l-1.11-27.44s3-10.23-12.39-12.6-58.14,3-83.7,9.21c-20.57,5-42.35,11.51-49.1,16.11S35.59,163.4,36.57,168.83Zm153.81,34.67c0-.12,0-.2,0-.2l0,.2c.09,1,.69,5.11,3.88,3.51,3.6-1.81,2.54-16.94,3.33-19.11s10.64-9.9,19.2-1.89,18.52,37,22.47,59.1,5.1,52.8-1.93,69.92S222.08,330,219.06,327.91,208.79,326,208.79,326s-6.36-24.92-10.77-53.88C193.78,244.32,190.62,206.5,190.38,203.51Z"/><path id="_Clipping_Path_" data-name="&lt;Clipping Path&gt;" class="cls-4" d="M211.16,362.81s-14.32,11.25-57.66,18.49c-54.59,9.12-67.71,3.63-67.71,3.63s-3.66-40.4-9.61-78.2S51.3,204.57,51.3,204.57s15.82-11.95,64.25-20c53.07-8.77,69.24-3.89,69.24-3.89s2.31,51.22,8.23,93.18S211.16,362.81,211.16,362.81Z"/><path class="cls-5" d="M212.38,385.62c.24,1.31-.91,2.43-2,3.21-5.94,4.26-13.13,6.34-20.2,8.21q-19.52,5.16-39.39,8.86c-14.11,2.63-28.47,4.7-42.79,3.66a71,71,0,0,1-13.91-2.28c-1.42-.39-3.15-1.4-2.77-2.82.29-1.06,1.58-1.43,2.66-1.61l27.48-4.71L155,392.38c17.49-3,35-6,52.54-8.56C209.44,383.55,212,383.74,212.38,385.62Z"/><path class="cls-5" d="M212.38,385.62c.24,1.31-.91,2.43-2,3.21-5.94,4.26-13.13,6.34-20.2,8.21q-19.52,5.16-39.39,8.86c-14.11,2.63-28.47,4.7-42.79,3.66a71,71,0,0,1-13.91-2.28c-1.42-.39-3.15-1.4-2.77-2.82.29-1.06,1.58-1.43,2.66-1.61l27.48-4.71L155,392.38c17.49-3,35-6,52.54-8.56C209.44,383.55,212,383.74,212.38,385.62Z"/><path class="cls-4" d="M131.75,404.71c5.33-.62,11-1.5,18.29-2.87,13.08-2.44,26.23-5.39,39.1-8.79a85.12,85.12,0,0,0,12.9-4.22c-15.5,2.35-31.11,5-46.27,7.62L105,405.14q1.59.18,3.27.3a124.23,124.23,0,0,0,23.44-.74Z"/><ellipse class="cls-6" cx="147.02" cy="369.15" rx="55.28" ry="5.05" transform="translate(-62.82 31.73) rotate(-10.16)"/><path class="cls-5" d="M190.12,179.81c-.06-2.95,3.32-6.33,6.47-7.37a29.6,29.6,0,0,1,12.64-1.83,26.72,26.72,0,0,1,13.88,5.28c-5.91-1.16-12.49-2.88-18.25-1.13-8.37,2.54-11.86,6.87-13.28,11.69C190.35,184.73,190.16,181.91,190.12,179.81Z"/><path class="cls-5" d="M213.36,339.6a51.65,51.65,0,0,0,3.32,11.72,5.2,5.2,0,0,0,1,1.74c1.59,1.58,4.27.68,6.22-.42a51.3,51.3,0,0,0,22.21-25.71,10.55,10.55,0,0,0,1-5.75q-4.1,4.38-8.56,8.4a34.26,34.26,0,0,1-9.11,6.39c-3.42,1.47-7.45,1.91-10.86.4-1.36-.6-2.94-1.51-4.22-.73S213.13,338.17,213.36,339.6Z"/><path class="cls-7" d="M51.3,204.57s7.3-5.51,27.14-11.55c13.41,58.69,25.32,118,32.76,177.78a126.51,126.51,0,0,1,.35,15.51c-19.94,1.05-25.75-1.38-25.75-1.38s-3.66-40.4-9.61-78.2S51.3,204.57,51.3,204.57Z"/><path class="cls-7" d="M134.26,184.52c22.46-1.49,50.53-3.79,50.53-3.79s2.31,51.22,8.23,93.18,18.14,88.91,18.14,88.91S195,373,168.07,378.4C150.1,315.53,146.38,257.48,134.26,184.52Z"/><path class="cls-8" d="M185.27,147.56c-12.67,7.37-22.15,26-30.28,29.82-11.83,5.62-25.7,2.25-38.62.05-15-2.54-30.87-3.23-44.87,2.67-6.52,2.75-12.58,7-16.34,13s-4.93,13.83-2,20.25a9,9,0,0,0,2.93,3.79c3.18,2.15,7.52.76,10.85-1.14,14-8,23.47-24.15,39.26-27.48,16.26-3.44,32.13,8.31,48.74,8.08,11.72-.16,23.17-4.47,29.1-14.58.92-1.57,1.76-5.75,1.54-12.14C185.41,164.34,185.76,151.84,185.27,147.56Z"/><path class="cls-9" d="M173.29,150.27c4.73.63,5.4,6,5.24,10.69-.58,17.56.06,25.45.58,40.75,1.63,48.53,11.45,96.17,22.64,143.42.66,2.79,1.19,6.11-.77,8.2s-3.15,1.48-5.4-.23-3.47-4.42-4.48-7.05c-3.43-9-13-50.64-19.57-94.05a457.86,457.86,0,0,1-4.83-89.43C166.81,160.59,167,149.43,173.29,150.27Z"/><path class="cls-9" d="M55.57,187.74c-3.45,1.92-2.36,6.59-.81,10.5,5.75,14.55,7.64,21.36,11.87,34.34,13.41,41.17,20.24,84,25.9,126.92.33,2.53.93,5.47,3.07,6.65s2.88.32,4.09-1.78,1.34-4.72,1.32-7.23c-.06-8.51-5.26-46.29-13.35-84.62a441.89,441.89,0,0,0-23.31-76.41C63.69,194.49,60.17,185.19,55.57,187.74Z"/><circle class="cls-10" cx="80.92" cy="177.51" r="10.59" transform="translate(-19.96 10.53) rotate(-6.63)"/><circle class="cls-10" cx="97.5" cy="197.12" r="5.68" transform="translate(-22.11 12.58) rotate(-6.63)"/><path class="cls-2" d="M52.82,18.78a14.73,14.73,0,0,0,4-6.92A8.51,8.51,0,0,0,55,4.29a8.59,8.59,0,0,0-3.24-2.08c-4.78-1.81-10.48,0-14,3.65s-5,9-4.84,14.13c.05,1.36,0,3.07,1,3.89C41.47,29.5,48.47,23.28,52.82,18.78Z"/><path class="cls-2" d="M7.45,1.13,7,1.16A6.74,6.74,0,0,0,1.84,4.82a6.12,6.12,0,0,0,0,5.83,4.74,4.74,0,0,0,4.43,2.25,7.15,7.15,0,0,0,5.75-2.77A5.88,5.88,0,0,0,12.57,4,5.77,5.77,0,0,0,7.45,1.13Z"/><path class="cls-2" d="M57.12,49.34a12.08,12.08,0,0,0,6.51,2.72,7,7,0,0,0,6.23-2.82A6.86,6.86,0,0,0,70.28,43a11.14,11.14,0,0,0-4.23-4.87,9.88,9.88,0,0,0-3.42-1.55,7.06,7.06,0,0,0-5.1,13"/><path class="cls-2" d="M91.23,52.42a4.4,4.4,0,0,0-4.89.14c-1.92,1.54-1.52,5.22.82,6l2.73.9a3.84,3.84,0,0,0,2.71-.93,3.77,3.77,0,0,0,.17-4.67A4.59,4.59,0,0,0,91.23,52.42Z"/><path class="cls-2" d="M1197.23,185.72c1.17-10.32-.33-20.78.83-31.09.83-7.32,1.65-14.8.08-22-3.89-17.8-21.36-30-26.05-47.61A35.88,35.88,0,0,1,1172,67.1c1.8-7.13,7.37-14.5,14.7-14,6.9.5,11.31,7.6,13.4,14.2s3.31,14,8.38,18.71c10.07,9.36,27.18,1.81,39.71,7.48,5.95,2.69,10.15,8.06,14.64,12.8a9.93,9.93,0,0,0,4.26,3.07c6.5,1.82,10.4-8.76,17.14-9.23,4.87-.34,8.22,4.64,12.43,7.11,5.7,3.35,12.92,2,19.36,3.44,7.14,1.64,13.07,6.83,17.14,12.91s6.55,13.09,9,20c1.73,4.9,3.32,10.79.17,14.92-1.9,2.49-5.06,3.61-8.08,4.49-24,7-49.65,6.25-74,12-7.59,1.78-15.05,4.18-22.76,5.33-14,2.09-28.62,0-42,4.52"/><path class="cls-3" d="M1194,180c1,5.43,19.48,54.25,29.07,106.88s17.19,115,17.54,124-.21,13.92,5.86,14.58c23.18,2.51,52.47,1,83.17-6.38,23.8-5.72,46-12.63,49.7-16.87s-4.47-26.52-4.47-26.52,39.08-18.76,43.06-59.1-12.5-107.33-26.43-125.91c-18.88-25.2-44.64-8.16-44.64-8.16l-1.11-27.44s3-10.23-12.39-12.6-58.14,3-83.7,9.21c-20.57,5-42.35,11.51-49.1,16.11S1193,174.55,1194,180Zm153.81,34.67c0-.12,0-.2,0-.2l0,.2c.09,1,.69,5.11,3.88,3.51,3.6-1.81,2.54-16.94,3.33-19.11s10.64-9.9,19.2-1.89,18.52,37,22.47,59.1,5.1,52.8-1.93,69.92-15.25,14.95-18.27,12.87-10.28-1.93-10.28-1.93-6.36-24.92-10.77-53.88C1351.17,255.47,1348,217.65,1347.77,214.66Z"/><path id="_Clipping_Path_2" data-name="&lt;Clipping Path&gt;" class="cls-4" d="M1368.55,374s-14.32,11.25-57.66,18.49c-54.59,9.12-67.71,3.63-67.71,3.63s-3.66-40.4-9.61-78.2-24.88-102.17-24.88-102.17,15.82-11.95,64.25-20c53.07-8.77,69.24-3.89,69.24-3.89s2.31,51.22,8.23,93.18S1368.55,374,1368.55,374Z"/><path class="cls-5" d="M1369.77,396.77c.24,1.31-.91,2.43-2,3.21-5.94,4.26-13.13,6.34-20.2,8.21q-19.52,5.16-39.39,8.86c-14.11,2.63-28.47,4.7-42.79,3.66a71,71,0,0,1-13.91-2.28c-1.42-.39-3.15-1.4-2.77-2.82.29-1.06,1.58-1.43,2.66-1.61l27.48-4.71,33.55-5.75c17.49-3,35-6,52.54-8.56C1366.83,394.7,1369.42,394.89,1369.77,396.77Z"/><path class="cls-5" d="M1369.77,396.77c.24,1.31-.91,2.43-2,3.21-5.94,4.26-13.13,6.34-20.2,8.21q-19.52,5.16-39.39,8.86c-14.11,2.63-28.47,4.7-42.79,3.66a71,71,0,0,1-13.91-2.28c-1.42-.39-3.15-1.4-2.77-2.82.29-1.06,1.58-1.43,2.66-1.61l27.48-4.71,33.55-5.75c17.49-3,35-6,52.54-8.56C1366.83,394.7,1369.42,394.89,1369.77,396.77Z"/><path class="cls-4" d="M1289.14,415.86c5.33-.62,11-1.5,18.29-2.87,13.08-2.44,26.23-5.39,39.1-8.79a85.12,85.12,0,0,0,12.9-4.22c-15.5,2.35-31.11,5-46.27,7.62l-50.73,8.69q1.59.18,3.27.3a124.23,124.23,0,0,0,23.44-.74Z"/><ellipse class="cls-6" cx="1304.41" cy="380.3" rx="55.28" ry="5.05" transform="translate(-46.63 236.1) rotate(-10.16)"/><path class="cls-5" d="M1347.51,191c-.06-2.95,3.32-6.33,6.47-7.37a29.6,29.6,0,0,1,12.64-1.83,26.72,26.72,0,0,1,13.88,5.28c-5.91-1.16-12.49-2.88-18.25-1.13-8.37,2.54-11.86,6.87-13.28,11.69C1347.74,195.88,1347.55,193.06,1347.51,191Z"/><path class="cls-5" d="M1370.75,350.75a51.66,51.66,0,0,0,3.32,11.72,5.2,5.2,0,0,0,1,1.74c1.59,1.58,4.27.68,6.22-.42a51.3,51.3,0,0,0,22.21-25.71,10.55,10.55,0,0,0,1-5.75q-4.1,4.38-8.56,8.4a34.26,34.26,0,0,1-9.11,6.39c-3.42,1.47-7.45,1.91-10.86.4-1.36-.6-2.94-1.51-4.22-.73S1370.52,349.32,1370.75,350.75Z"/><path class="cls-7" d="M1208.69,215.72s7.3-5.51,27.14-11.55c13.41,58.69,25.32,118,32.76,177.78a126.51,126.51,0,0,1,.35,15.51c-19.94,1.05-25.75-1.38-25.75-1.38s-3.66-40.4-9.61-78.2S1208.69,215.72,1208.69,215.72Z"/><path class="cls-7" d="M1291.65,195.67c22.46-1.49,50.53-3.79,50.53-3.79s2.31,51.22,8.23,93.18S1368.55,374,1368.55,374s-16.15,10.2-43.09,15.59C1307.49,326.68,1303.77,268.63,1291.65,195.67Z"/><path class="cls-8" d="M1342.66,158.71c-12.67,7.37-22.15,26-30.28,29.82-11.83,5.62-25.7,2.25-38.62.05-15-2.54-30.87-3.23-44.87,2.67-6.52,2.75-12.58,7-16.34,13s-4.93,13.83-2,20.25a9,9,0,0,0,2.93,3.79c3.18,2.15,7.52.76,10.85-1.14,14-8,23.47-24.15,39.26-27.48,16.26-3.44,32.13,8.31,48.74,8.08,11.72-.16,23.17-4.47,29.1-14.58.92-1.57,1.76-5.75,1.54-12.14C1342.8,175.49,1343.15,163,1342.66,158.71Z"/><path class="cls-9" d="M1330.68,161.42c4.73.63,5.4,6,5.24,10.69-.58,17.56.06,25.45.58,40.75,1.63,48.53,11.45,96.17,22.64,143.42.66,2.79,1.19,6.11-.77,8.2s-3.15,1.48-5.4-.23-3.47-4.42-4.48-7.05c-3.43-9-13-50.64-19.57-94.05a457.86,457.86,0,0,1-4.83-89.43C1324.2,171.74,1324.39,160.58,1330.68,161.42Z"/><path class="cls-9" d="M1213,198.89c-3.45,1.92-2.36,6.59-.81,10.5,5.75,14.55,7.64,21.36,11.87,34.34,13.41,41.17,20.24,84,25.9,126.92.33,2.53.93,5.47,3.07,6.65s2.88.32,4.09-1.78,1.34-4.72,1.32-7.23c-.06-8.51-5.26-46.29-13.35-84.62a441.89,441.89,0,0,0-23.31-76.41C1221.08,205.64,1217.56,196.34,1213,198.89Z"/><circle class="cls-10" cx="1238.31" cy="188.66" r="10.59" transform="translate(-13.5 144.27) rotate(-6.63)"/><circle class="cls-10" cx="1254.89" cy="208.27" r="5.68" transform="translate(-15.66 146.32) rotate(-6.63)"/><path class="cls-2" d="M1210.22,29.93a14.73,14.73,0,0,0,4-6.92,8.51,8.51,0,0,0-1.82-7.57,8.59,8.59,0,0,0-3.24-2.08c-4.78-1.81-10.48,0-14,3.65s-5,9-4.84,14.13c.05,1.36,0,3.07,1,3.89C1198.86,40.65,1205.87,34.43,1210.22,29.93Z"/><path class="cls-2" d="M1164.84,12.28l-.44,0a6.74,6.74,0,0,0-5.17,3.66,6.12,6.12,0,0,0,0,5.83,4.74,4.74,0,0,0,4.43,2.25,7.15,7.15,0,0,0,5.75-2.77,5.88,5.88,0,0,0,.5-6.16A5.77,5.77,0,0,0,1164.84,12.28Z"/><path class="cls-2" d="M1214.51,60.49a12.08,12.08,0,0,0,6.51,2.72,7,7,0,0,0,6.23-2.82,6.86,6.86,0,0,0,.42-6.28,11.14,11.14,0,0,0-4.23-4.87,9.88,9.88,0,0,0-3.42-1.55,7.06,7.06,0,0,0-5.1,13"/><path class="cls-2" d="M1248.62,63.57a4.4,4.4,0,0,0-4.89.14c-1.92,1.54-1.52,5.22.82,6l2.73.9a3.84,3.84,0,0,0,2.71-.93,3.77,3.77,0,0,0,.17-4.67A4.59,4.59,0,0,0,1248.62,63.57Z"/><path class="cls-11" d="M385.55,83h29.07V202.34H385.55V152.87H339.48v49.47H310.41V83h29.07v47.77h46.07Z"/><path class="cls-11" d="M445.73,189.93q-12.58-13.6-12.58-34.85t12.58-34.94q12.58-13.68,30.69-13.69t27.79,13.43V107.48h29.07v94.86H504.21V188.57q-10.54,15-28.22,15T445.73,189.93Zm52.19-17.68q6.29-6.12,6.29-17.34t-6.29-17.25a20.22,20.22,0,0,0-28.9.08q-6.29,6.12-6.29,17.34T469,172.34a20.22,20.22,0,0,0,28.9-.08Z"/><path class="cls-11" d="M587.85,119.89q9.69-13.43,27.79-13.43t30.69,13.69q12.58,13.69,12.58,34.94t-12.58,34.85q-12.58,13.6-30.43,13.6t-28.05-15v59H558.78V107.48h29.07ZM623,172.34q6.29-6,6.29-17.25T623,137.74a20.22,20.22,0,0,0-28.9-.08q-6.29,6-6.29,17.25t6.29,17.34a20.22,20.22,0,0,0,28.9.08Z"/><path class="cls-11" d="M706.51,119.89q9.69-13.43,27.79-13.43T765,120.15q12.58,13.69,12.58,34.94T765,189.93q-12.58,13.6-30.43,13.6t-28-15v59H677.44V107.48h29.07Zm35.19,52.45q6.29-6,6.29-17.25t-6.29-17.34a20.22,20.22,0,0,0-28.9-.08q-6.29,6-6.29,17.25t6.29,17.34a20.22,20.22,0,0,0,28.9.08Z"/><path class="cls-11" d="M820.92,200.47l-36.89-93h33l21.08,62,23.12-62h30.43L831.11,247.56H800.69Z"/><path class="cls-11" d="M310.41,253h51.85q18.19,0,29,8.84T402,284.28q0,20.23-23.63,27.37,12.07,1.7,19.21,10a29.1,29.1,0,0,1,7.14,19.55q0,14.28-10.46,22.69t-29.15,8.42H310.41Zm29.07,22.1v25.84h19q6.29,0,10.12-3.23t3.82-9.6q0-6.37-3.82-9.69t-10.12-3.32Zm0,75.14h21.93a14.07,14.07,0,0,0,9.86-3.57q3.91-3.57,3.91-9.86t-3.74-10a13.12,13.12,0,0,0-9.69-3.74H339.48Z"/><path class="cls-11" d="M465.28,373.53q-20.74,0-34-13.34T418,324.74q0-22.1,13.18-35.19t34.08-13.09q20.91,0,34.68,12.92t13.77,35.87a58.36,58.36,0,0,1-.68,9.18H447.77a16.57,16.57,0,0,0,15.9,14.28,23.15,23.15,0,0,0,8.25-1.1,14.67,14.67,0,0,0,4-2.21,29.31,29.31,0,0,0,3.31-3.66h31.45a41.67,41.67,0,0,1-16.32,23Q482.11,373.54,465.28,373.53Zm12.41-68.08a18.5,18.5,0,0,0-12.07-4.17,17.18,17.18,0,0,0-11.73,4.17,18.12,18.12,0,0,0-5.95,10.79h35.53A15.45,15.45,0,0,0,477.69,305.45Z"/><path class="cls-11" d="M572.72,373.53q-20.74,0-34-13.34t-13.26-35.45q0-22.1,13.18-35.19t34.08-13.09q20.91,0,34.68,12.92t13.77,35.87a58.3,58.3,0,0,1-.68,9.18H555.21a16.57,16.57,0,0,0,15.9,14.28,23.15,23.15,0,0,0,8.25-1.1,14.67,14.67,0,0,0,4-2.21,29.31,29.31,0,0,0,3.31-3.66h31.45a41.67,41.67,0,0,1-16.32,23Q589.55,373.54,572.72,373.53Zm12.41-68.08a18.5,18.5,0,0,0-12.07-4.17,17.18,17.18,0,0,0-11.73,4.17,18.12,18.12,0,0,0-5.95,10.79h35.53A15.45,15.45,0,0,0,585.13,305.45Z"/><path class="cls-11" d="M668.93,277.48v17.68q10.2-18.7,27.2-18.7V306H689q-10,0-15,4.76t-5,16.66v44.88H639.86V277.48Z"/><path class="cls-11" d="M1564.21,164.58H1597v134.6h-32.79V243.38h-52v55.79h-32.79V164.58h32.79v53.88h52Z"/><path class="cls-11" d="M1632.08,285.18q-14.19-15.34-14.19-39.3t14.19-39.4Q1646.27,191,1666.69,191T1698,206.19v-14h32.79v107H1698V283.65q-11.89,16.87-31.83,16.87T1632.08,285.18Zm58.86-19.94q7.09-6.9,7.09-19.56t-7.09-19.46a22.8,22.8,0,0,0-32.59.1q-7.1,6.9-7.09,19.56t7.09,19.46a22.8,22.8,0,0,0,32.59-.1Z"/><path class="cls-11" d="M1792.37,206.19Q1803.3,191,1823.72,191t34.61,15.43q14.19,15.44,14.19,39.4t-14.19,39.3q-14.19,15.34-34.32,15.34t-31.64-16.87v66.53h-32.79v-158h32.79Zm39.69,59.15q7.09-6.8,7.09-19.46t-7.09-19.56a22.8,22.8,0,0,0-32.59-.1q-7.1,6.81-7.09,19.46t7.09,19.56a22.8,22.8,0,0,0,32.59.1Z"/><path class="cls-11" d="M1926.2,206.19Q1937.13,191,1957.55,191t34.61,15.43q14.19,15.44,14.19,39.4t-14.19,39.3q-14.19,15.34-34.32,15.34t-31.64-16.87v66.53h-32.79v-158h32.79Zm39.69,59.15q7.09-6.8,7.09-19.46t-7.09-19.56a22.8,22.8,0,0,0-32.59-.1q-7.1,6.81-7.09,19.46t7.09,19.56a22.8,22.8,0,0,0,32.59.1Z"/><path class="cls-11" d="M2055.24,297.07l-41.61-104.88h37.2l23.77,70,26.08-70H2135l-68.26,158h-34.32Z"/><path class="cls-11" d="M2207.66,164.58h58.48q20.51,0,32.69,10T2311,199.86q0,22.82-26.65,30.87Q2298,232.65,2306,242a32.82,32.82,0,0,1,8.05,22q0,16.11-11.79,25.6t-32.88,9.49h-61.74Zm32.79,24.92v29.14h21.47q7.09,0,11.41-3.64t4.31-10.83q0-7.19-4.31-10.93t-11.41-3.74Zm0,84.75h24.73a15.87,15.87,0,0,0,11.12-4q4.41-4,4.41-11.12t-4.22-11.31a14.8,14.8,0,0,0-10.93-4.22h-25.12Z"/><path class="cls-11" d="M2382.33,300.52q-23.39,0-38.35-15.05t-15-40q0-24.92,14.86-39.69T2382.33,191q23.58,0,39.11,14.57T2437,246.07a65.86,65.86,0,0,1-.77,10.35h-73.62a18.68,18.68,0,0,0,17.93,16.11q6.23,0,9.3-1.25a16.55,16.55,0,0,0,4.51-2.49,33.2,33.2,0,0,0,3.74-4.12h35.47a47,47,0,0,1-18.41,26Q2401.31,300.52,2382.33,300.52Zm14-76.79a20.86,20.86,0,0,0-13.61-4.7,19.37,19.37,0,0,0-13.23,4.7,20.44,20.44,0,0,0-6.71,12.18h40.07A17.43,17.43,0,0,0,2396.32,223.73Z"/><path class="cls-11" d="M2503.5,300.52q-23.39,0-38.35-15.05t-15-40q0-24.92,14.86-39.69T2503.5,191q23.58,0,39.11,14.57t15.53,40.46a65.86,65.86,0,0,1-.77,10.35h-73.62a18.68,18.68,0,0,0,17.93,16.11q6.23,0,9.3-1.25a16.55,16.55,0,0,0,4.51-2.49,33.2,33.2,0,0,0,3.74-4.12h35.47a47,47,0,0,1-18.41,26Q2522.48,300.52,2503.5,300.52Zm14-76.79a20.86,20.86,0,0,0-13.61-4.7,19.37,19.37,0,0,0-13.23,4.7,20.44,20.44,0,0,0-6.71,12.18H2524A17.43,17.43,0,0,0,2517.5,223.73Z"/><path class="cls-11" d="M2612,192.19v19.94Q2623.52,191,2642.7,191V224.4h-8.05q-11.32,0-17,5.37T2612,248.56v50.62h-32.79v-107Z"/></g></g></svg>