<svg version="1" xmlns="http://www.w3.org/2000/svg" width="21.333" height="21.333" viewBox="0 0 16.000000 16.000000"><path d="M3.171.145c-.243.13-.187.49.077.493.147 0 .27-.09.3-.221C3.57.299 3.533.203 3.442.15a.257.257 0 0 0-.272-.005zM4.71.137a.64.64 0 0 0-.328.205c-.13.15-.203.579-.115.683.096.117.336.141.507.05.13-.066.344-.28.4-.4.16-.33-.088-.621-.464-.538zM5.209 1.478a.278.278 0 0 0-.174.27c.006.149.067.24.219.317.277.144.555-.03.483-.301a.475.475 0 0 0-.259-.288c-.11-.046-.16-.046-.27.002zM3.907 1.7c-.259.122-.419.453-.416.874 0 .368.123.654.528 1.224.44.617.526.817.526 1.24 0 .14-.008.337-.02.44a6.02 6.02 0 0 0-.023.409c-.003.173-.013.23-.05.261-.073.064-.113.213-.091.325.01.054.106.374.216.713a34.33 34.33 0 0 1 .688 2.387c.005.037.037.18.069.32.05.22.117.557.15.741.031.184.066.373.077.432a30.598 30.598 0 0 0 .104.63l.029.2c.01.08.021.149.027.157.002.008.016.085.026.173.008.086.022.166.027.174a53.784 53.784 0 0 1 .083.56c.021.154.045.322.05.373l.027.173.027.2c.008.067.018.147.024.18.008.031.018.132.03.226.007.093.02.197.026.234l.026.227c.008.088.022.19.027.227.013.08.059.61.075.875.002.085.12.16.274.181.371.05 1.526.024 2.038-.048a7.05 7.05 0 0 0 .467-.07c.088-.015.19-.034.226-.042.185-.032.726-.165 1.1-.27.706-.2 1.106-.354 1.21-.469.08-.088.059-.339-.067-.755l-.074-.25.253-.166c.29-.189.744-.624.904-.866.248-.371.403-.755.454-1.131.042-.296.021-1.36-.032-1.63a2.82 2.82 0 0 1-.027-.186 7.343 7.343 0 0 0-.04-.267c-.013-.08-.032-.184-.037-.227a11.615 11.615 0 0 0-.494-1.85c-.333-.897-.803-1.313-1.435-1.273-.2.013-.4.061-.536.133a.63.63 0 0 1-.09.043.599.599 0 0 1-.011-.155c-.019-.794-.037-1.021-.085-1.093a1.903 1.903 0 0 1-.126-.285c-.192-.547-.405-.86-.712-1.049-.152-.093-.261-.12-.608-.152-.261-.02-.347-.053-.533-.2-.283-.218-.4-.213-.68.027-.26.227-.278.224-.595-.093-.376-.376-.518-.432-1.123-.44-.421-.006-.48-.014-.64-.083-.213-.09-.304-.23-.432-.656-.139-.459-.31-.661-.576-.69a.434.434 0 0 0-.235.037zm7.21 5.406c.16.082.314.304.49.709.181.427.416 1.216.464 1.558a.804.804 0 0 0 .027.149c.005.01.024.136.04.28.016.147.034.299.04.344a15 15 0 0 1 .002 1.093c-.008.03-.021.126-.03.214-.044.39-.2.779-.383.965-.136.139-.246.158-.427.072a.846.846 0 0 0-.216-.056l-.133-.016-.056-.242c-.078-.32-.102-.435-.19-.87a43.064 43.064 0 0 1-.197-1.17 3.012 3.012 0 0 1-.024-.193 3.076 3.076 0 0 0-.027-.197 3.217 3.217 0 0 1-.026-.227l-.027-.24c-.008-.037-.019-.152-.03-.253a6.738 6.738 0 0 0-.026-.267 11.176 11.176 0 0 1-.056-.565c-.013-.184-.013-.192.045-.2.107-.016.155-.142.174-.464.013-.254.024-.296.072-.34.149-.124.344-.156.493-.084zM6.27 2.076c-.117.117-.045.282.133.312.14.024.224-.056.2-.182-.02-.114-.06-.152-.184-.173-.072-.01-.104-.003-.149.043z"/></svg>