<?xml version="1.0" standalone="no"?>
<!DOCTYPE svg PUBLIC "-//W3C//DTD SVG 20010904//EN"
 "http://www.w3.org/TR/2001/REC-SVG-20010904/DTD/svg10.dtd">
<svg version="1.0" xmlns="http://www.w3.org/2000/svg"
 width="16.000000pt" height="16.000000pt" viewBox="0 0 16.000000 16.000000"
 preserveAspectRatio="xMidYMid meet">
<metadata>
Created by potrace 1.11, written by Peter Selinger 2001-2013
</metadata>
<g transform="translate(0.000000,16.000000) scale(0.002667,-0.002667)"
fill="#000000" stroke="none">
<path d="M1189 5945 c-91 -49 -70 -184 29 -185 55 0 101 34 112 83 9 44 -5 80
-39 100 -35 20 -67 21 -102 2z"/>
<path d="M1766 5948 c-43 -9 -90 -39 -123 -77 -49 -56 -76 -217 -43 -256 36
-44 126 -53 190 -19 49 25 129 105 150 150 60 124 -33 233 -174 202z"/>
<path d="M1953 5445 c-41 -17 -67 -57 -65 -101 2 -56 25 -90 82 -119 104 -54
208 11 181 113 -13 45 -52 89 -97 108 -41 17 -60 17 -101 -1z"/>
<path d="M1465 5362 c-97 -46 -157 -170 -156 -328 0 -138 46 -245 198 -459
165 -231 197 -306 197 -465 0 -52 -3 -126 -7 -165 -4 -38 -8 -107 -9 -153 -1
-65 -5 -86 -19 -98 -27 -24 -42 -80 -34 -122 4 -20 40 -140 81 -267 74 -228
147 -470 185 -615 11 -41 31 -116 44 -165 13 -50 26 -101 29 -115 2 -14 14
-68 26 -120 19 -83 44 -209 56 -278 12 -69 25 -140 29 -162 3 -14 7 -38 9 -55
6 -39 25 -154 30 -181 2 -12 7 -45 11 -75 4 -30 8 -56 10 -59 1 -3 6 -32 10
-65 3 -32 8 -62 10 -65 1 -3 6 -27 9 -55 4 -27 14 -97 22 -155 8 -58 17 -121
19 -140 3 -19 7 -48 10 -65 2 -16 7 -50 10 -75 3 -25 7 -55 9 -67 3 -12 7 -50
11 -85 3 -35 8 -74 10 -88 2 -14 6 -52 10 -85 3 -33 8 -71 10 -85 5 -30 22
-229 28 -328 1 -32 45 -60 103 -68 139 -19 572 -9 764 18 41 5 84 11 95 13 11
1 47 7 80 13 33 6 71 13 85 16 69 12 272 62 412 101 265 75 415 133 454 176
30 33 22 127 -25 283 l-28 94 95 62 c109 71 279 234 339 325 93 139 151 283
170 424 16 111 8 510 -12 611 -3 14 -7 45 -10 70 -3 25 -10 70 -15 100 -5 30
-12 69 -14 85 -35 209 -112 496 -185 694 -125 336 -301 492 -538 477 -75 -5
-150 -23 -201 -50 -17 -9 -32 -16 -34 -16 -2 0 -4 26 -4 58 -7 298 -14 383
-32 410 -10 15 -31 63 -47 107 -72 205 -152 322 -267 393 -57 35 -98 45 -228
57 -98 8 -130 20 -200 75 -106 82 -150 80 -255 -10 -97 -85 -104 -84 -223 35
-141 141 -194 162 -421 165 -158 2 -180 5 -240 31 -80 34 -114 86 -162 246
-52 172 -116 248 -216 259 -34 3 -59 -1 -88 -14z m2703 -2027 c60 -31 118
-114 184 -266 68 -160 156 -456 174 -584 3 -27 8 -53 10 -56 2 -4 9 -51 15
-105 6 -55 13 -112 15 -129 5 -43 6 -386 1 -410 -3 -11 -8 -47 -11 -80 -17
-146 -75 -292 -144 -362 -51 -52 -92 -59 -160 -27 -17 8 -54 18 -81 21 l-50 6
-21 91 c-29 120 -38 163 -71 326 -12 60 -55 313 -64 373 -3 27 -8 57 -10 66
-2 10 -6 42 -9 72 -3 30 -8 63 -10 74 -2 11 -7 49 -10 85 -4 36 -8 76 -10 90
-3 14 -7 57 -11 95 -3 39 -8 84 -10 100 -5 35 -13 112 -21 212 -5 69 -5 72 17
75 40 6 58 53 65 174 5 95 9 111 27 127 56 47 129 59 185 32z"/>
<path d="M2351 5221 c-44 -44 -17 -106 50 -117 52 -9 84 21 75 68 -8 43 -23
57 -69 65 -27 4 -39 1 -56 -16z"/>
</g>
</svg>
