<svg xmlns="http://www.w3.org/2000/svg" xmlns:xlink="http://www.w3.org/1999/xlink" viewBox="0 0 1410.7 268.2"><style>.st0{fill:#fff;stroke:#eceae2;stroke-width:2.2523;stroke-miterlimit:10}.st0,.st1,.st2,.st3,.st4,.st5,.st6{fill-rule:evenodd;clip-rule:evenodd}.st1{stroke:#c9c9c9;stroke-width:2.0664;stroke-miterlimit:10;fill:#eceae2}.st2,.st3,.st4,.st5,.st6{fill:#c9c9c9}.st3,.st4,.st5,.st6{fill:#e3b909}.st4,.st5,.st6{fill:#b87537}.st5,.st6{opacity:.4;fill:#e3b909}.st6{opacity:.9;fill:#f9f9f6}.st7{fill:#fff}</style><g id="objects"><path class="st0" d="M26 112.5c.7-6.6-.2-13.3.5-20 .5-4.7 1.1-9.5 0-14.1C24.1 67 12.9 59.1 9.8 47.8c-1-3.7-1-7.7-.1-11.5 1.2-4.6 4.7-9.3 9.4-9 4.4.3 7.3 4.9 8.6 9.1s2.1 9 5.4 12c6.5 6 17.5 1.2 25.5 4.8 3.8 1.7 6.5 5.2 9.4 8.2.8.8 1.6 1.7 2.7 2 4.2 1.2 6.7-5.6 11-5.9 3.1-.2 5.3 3 8 4.6 3.7 2.1 8.3 1.3 12.4 2.2 4.6 1.1 8.4 4.4 11 8.3 2.6 3.9 4.2 8.4 5.8 12.8 1.1 3.1 2.1 6.9.1 9.6-1.2 1.6-3.3 2.3-5.2 2.9-15.4 4.5-31.9 4-47.5 7.7-4.9 1.1-9.7 2.7-14.6 3.4-9 1.3-18.4 0-27 2.9"/><path class="st1" d="M23.9 108.8c.6 3.5 12.5 34.8 18.7 68.6 6.2 33.8 11 73.9 11.3 79.6.2 5.8-.1 8.9 3.8 9.4 14.9 1.6 33.7.6 53.4-4.1 15.3-3.7 29.6-8.1 31.9-10.8 2.4-2.7-2.9-17-2.9-17s25.1-12 27.7-38c2.6-25.9-8-68.9-17-80.9-12.1-16.2-28.7-5.2-28.7-5.2l-.7-17.6s1.9-6.6-8-8.1-37.4 2-53.8 5.9C46.4 93.9 32.4 98 28.1 101c-4.3 2.9-4.8 4.3-4.2 7.8zm98.8 22.3v-.1.1c.1.6.4 3.3 2.5 2.3 2.3-1.2 1.6-10.9 2.1-12.3.5-1.4 6.8-6.4 12.3-1.2 5.5 5.2 11.9 23.8 14.4 38s3.3 33.9-1.2 44.9-9.8 9.6-11.7 8.3c-1.9-1.3-6.6-1.2-6.6-1.2s-4.1-16-6.9-34.6c-2.8-18-4.8-42.3-4.9-44.2z"/><defs><path id="XMLID_3_" d="M136 233.4s-9.2 7.2-37 11.9c-35.1 5.9-43.5 2.3-43.5 2.3s-2.3-25.9-6.2-50.2-16-65.6-16-65.6 10.2-7.7 41.3-12.8c34.1-5.6 44.5-2.5 44.5-2.5s1.5 32.9 5.3 59.8 11.6 57.1 11.6 57.1z"/></defs><use xlink:href="#XMLID_3_" overflow="visible" fill-rule="evenodd" clip-rule="evenodd" fill="#e3b909"/><clipPath id="XMLID_2_"><use xlink:href="#XMLID_3_" overflow="visible"/></clipPath><path class="st2" d="M136.8 248c.2.8-.6 1.6-1.3 2.1-3.8 2.7-8.4 4.1-13 5.3-8.4 2.2-16.8 4.1-25.3 5.7-9.1 1.7-18.3 3-27.5 2.4-3-.2-6-.7-8.9-1.5-.9-.3-2-.9-1.8-1.8.2-.7 1-.9 1.7-1 5.9-1 11.8-2 17.6-3 7.2-1.2 14.4-2.5 21.5-3.7 11.2-1.9 22.5-3.8 33.7-5.5 1.4-.3 3.1-.2 3.3 1z"/><path class="st2" d="M136.8 248c.2.8-.6 1.6-1.3 2.1-3.8 2.7-8.4 4.1-13 5.3-8.4 2.2-16.8 4.1-25.3 5.7-9.1 1.7-18.3 3-27.5 2.4-3-.2-6-.7-8.9-1.5-.9-.3-2-.9-1.8-1.8.2-.7 1-.9 1.7-1 5.9-1 11.8-2 17.6-3 7.2-1.2 14.4-2.5 21.5-3.7 11.2-1.9 22.5-3.8 33.7-5.5 1.4-.3 3.1-.2 3.3 1z"/><path class="st3" d="M85 260.3c3.4-.4 7-1 11.7-1.8 8.4-1.6 16.8-3.5 25.1-5.6 2.9-.8 5.7-1.6 8.3-2.7-10 1.5-20 3.2-29.7 4.9l-32.6 5.6c.7.1 1.4.1 2.1.2 4.6.2 9.5.1 15.1-.6z"/><ellipse transform="rotate(-10.166 94.813 237.516)" class="st4" cx="94.8" cy="237.5" rx="35.5" ry="3.2"/><path class="st2" d="M122.5 115.9c0-1.9 2.1-4.1 4.2-4.7 2.8-.9 5.2-1.4 8.1-1.2 3.6.3 6.6 1.6 8.9 3.4-3.8-.7-8-1.9-11.7-.7-5.4 1.6-7.6 4.4-8.5 7.5-.9-1.2-1-3-1-4.3zM137.4 218.5c.4 2.6 1.1 5.1 2.1 7.5.2.4.4.8.7 1.1 1 1 2.7.4 4-.3 6.4-3.7 11.6-9.6 14.3-16.5.5-1.2.9-2.5.6-3.7-1.8 1.9-3.6 3.7-5.5 5.4-1.8 1.6-3.7 3.2-5.9 4.1-2.2.9-4.8 1.2-7 .3-.9-.4-1.9-1-2.7-.5-.7.5-.7 1.7-.6 2.6z"/><path class="st5" d="M33.3 131.8s4.7-3.5 17.4-7.4c8.6 37.7 16.3 75.8 21 114.2.4 3.3.2 6.7.2 10-12.8.7-16.5-.9-16.5-.9s-2.3-25.9-6.2-50.2-15.9-65.7-15.9-65.7zM86.6 118.9c14.4-1 32.4-2.4 32.4-2.4s1.5 32.9 5.3 59.8 11.6 57.1 11.6 57.1-10.4 6.6-27.7 10C96.8 203 94.4 165.8 86.6 118.9z"/><path class="st4" d="M119.4 95.2c-8.1 4.7-14.2 16.7-19.4 19.2-7.6 3.6-16.5 1.4-24.8 0-9.6-1.6-19.8-2.1-28.8 1.7-4.2 1.8-8.1 4.5-10.5 8.4-2.4 3.8-3.2 8.9-1.3 13 .4.9 1 1.9 1.9 2.4 2 1.4 4.8.5 7-.7 9-5.1 15.1-15.5 25.2-17.6 10.4-2.2 20.6 5.3 31.3 5.2 7.5-.1 14.9-2.9 18.7-9.4.6-1 1.1-3.7 1-7.8-.2-3.7 0-11.7-.3-14.4z"/><path class="st6" d="M111.7 96.9c3 .4 3.5 3.8 3.4 6.9-.4 11.3 0 16.3.4 26.2 1 31.2 7.4 61.8 14.5 92.1.4 1.8.8 3.9-.5 5.3-1.2 1.3-2 1-3.5-.1s-2.2-2.8-2.9-4.5c-2.2-5.7-8.4-32.5-12.6-60.4-2.7-17.6-4.1-37.1-3.1-57.4.1-1.5.2-8.6 4.3-8.1zM36.1 121c-2.2 1.2-1.5 4.2-.5 6.7 3.7 9.3 4.9 13.7 7.6 22.1 8.6 26.4 13 54 16.6 81.5.2 1.6.6 3.5 2 4.3 1.4.7 1.8.2 2.6-1.1s.9-3 .8-4.6c0-5.5-3.4-29.7-8.6-54.3-3.3-15.6-8.1-32.3-15-49.1-.3-1.2-2.6-7.2-5.5-5.5z"/><ellipse transform="rotate(-6.636 52.357 114.39)" class="st6" cx="52.4" cy="114.4" rx="6.8" ry="6.8"/><ellipse transform="rotate(-6.636 63.001 126.984)" class="st6" cx="63" cy="127" rx="3.6" ry="3.6"/><path class="st0" d="M34.3 12.5c1.2-1.2 2.2-2.7 2.6-4.4.4-1.7 0-3.6-1.2-4.9-.6-.6-1.3-1-2.1-1.3-3.1-1.2-6.7 0-9 2.3s-3.2 5.8-3.1 9.1c0 .9 0 2 .7 2.5 4.8 3.5 9.3-.4 12.1-3.3zM5.2 1.1h-.3c-1.4.2-2.7 1.1-3.3 2.4-.6 1.2-.7 2.6 0 3.7.6 1 1.7 1.6 2.8 1.4 1.4 0 2.9-.6 3.7-1.8.8-1.1 1-2.7.3-4-.6-1-1.9-1.7-3.2-1.7zM37.1 32.1c1.2.9 2.7 1.7 4.2 1.7s3.2-.5 4-1.8c.8-1.2.8-2.7.3-4-.5-1.3-1.6-2.3-2.7-3.1-.7-.5-1.4-.8-2.2-1-2.1-.4-4.4.8-5.2 2.8-.8 2 .1 4.5 1.9 5.5M59 34.1c-1-.6-2.3-.6-3.1.1-1.2 1-1 3.3.5 3.8l1.8.6c.7 0 1.3-.2 1.7-.6.8-.8.7-2.1.1-3-.3-.4-.6-.7-1-.9z"/><g><path class="st7" d="M332.3 81.4h32.8V216h-32.8v-55.8h-52V216h-32.8V81.4h32.8v53.9h52V81.4zM400.1 202c-9.5-10.2-14.2-23.3-14.2-39.3 0-16 4.7-29.1 14.2-39.4 9.5-10.3 21-15.4 34.6-15.4 13.6 0 24.1 5.1 31.3 15.1v-14h32.8v107H466v-15.5c-7.9 11.2-18.5 16.9-31.8 16.9-13.2-.1-24.6-5.2-34.1-15.4zm58.9-20c4.7-4.6 7.1-11.1 7.1-19.6 0-8.4-2.4-14.9-7.1-19.5-4.7-4.5-10.2-6.8-16.3-6.8-6.1 0-11.6 2.3-16.3 6.9-4.7 4.6-7.1 11.1-7.1 19.6s2.4 14.9 7.1 19.5c4.7 4.5 10.2 6.8 16.3 6.8 6.1 0 11.6-2.3 16.3-6.9zM560.4 123c7.3-10.1 17.7-15.1 31.3-15.1 13.6 0 25.1 5.1 34.6 15.4s14.2 23.4 14.2 39.4-4.7 29.1-14.2 39.3c-9.5 10.2-20.9 15.3-34.3 15.3-13.4 0-24-5.6-31.6-16.9v66.5h-32.8V109h32.8v14zm39.7 59.1c4.7-4.5 7.1-11 7.1-19.5s-2.4-15-7.1-19.6c-4.7-4.6-10.2-6.9-16.3-6.9s-11.6 2.3-16.3 6.8c-4.7 4.5-7.1 11-7.1 19.5 0 8.4 2.4 15 7.1 19.6 4.7 4.6 10.2 6.9 16.3 6.9s11.6-2.3 16.3-6.8zM694.3 123c7.3-10.1 17.7-15.1 31.3-15.1 13.6 0 25.1 5.1 34.6 15.4s14.2 23.4 14.2 39.4-4.7 29.1-14.2 39.3c-9.5 10.2-20.9 15.3-34.3 15.3s-24-5.6-31.6-16.9v66.5h-32.8V109h32.8v14zm39.6 59.1c4.7-4.5 7.1-11 7.1-19.5s-2.4-15-7.1-19.6c-4.7-4.6-10.2-6.9-16.3-6.9-6.1 0-11.6 2.3-16.3 6.8-4.7 4.5-7.1 11-7.1 19.5 0 8.4 2.4 15 7.1 19.6 4.7 4.6 10.2 6.9 16.3 6.9 6.2 0 11.6-2.3 16.3-6.8zM823.3 213.8L781.7 109h37.2l23.8 70 26.1-70H903l-68.3 158h-34.3l22.9-53.2zM975.7 81.4h58.5c13.7 0 24.6 3.3 32.7 10 8.1 6.6 12.2 15.1 12.2 25.3 0 15.2-8.9 25.5-26.7 30.9 9.1 1.3 16.3 5.1 21.7 11.3 5.4 6.3 8.1 13.6 8.1 22 0 10.7-3.9 19.3-11.8 25.6-7.9 6.3-18.8 9.5-32.9 9.5h-61.7V81.4zm32.8 24.9v29.1h21.5c4.7 0 8.5-1.2 11.4-3.6 2.9-2.4 4.3-6 4.3-10.8s-1.4-8.4-4.3-10.9-6.7-3.7-11.4-3.7h-21.5zm0 84.7h24.7c4.5 0 8.2-1.3 11.1-4 2.9-2.7 4.4-6.4 4.4-11.1 0-4.7-1.4-8.5-4.2-11.3-2.8-2.8-6.5-4.2-10.9-4.2h-25.1V191zM1150.4 217.3c-15.6 0-28.4-5-38.3-15.1-10-10-15-23.4-15-40s5-29.8 14.9-39.7c9.9-9.8 22.7-14.8 38.4-14.8s28.8 4.9 39.1 14.6c10.4 9.7 15.5 23.2 15.5 40.5 0 3.7-.3 7.2-.8 10.4h-73.6c.6 4.7 2.7 8.6 6.3 11.6 3.6 3 7.4 4.5 11.6 4.5 4.2 0 7.3-.4 9.3-1.2 2-.8 3.5-1.7 4.5-2.5s2.2-2.2 3.7-4.1h35.5c-3.1 10.7-9.2 19.4-18.4 26-9.1 6.5-20.1 9.8-32.7 9.8zm14-76.8c-3.8-3.1-8.4-4.7-13.6-4.7-5.2 0-9.7 1.6-13.2 4.7-3.6 3.1-5.8 7.2-6.7 12.2h40.1c-.6-5-2.8-9.1-6.6-12.2zM1271.6 217.3c-15.6 0-28.4-5-38.3-15.1-10-10-15-23.4-15-40s5-29.8 14.9-39.7c9.9-9.8 22.7-14.8 38.4-14.8s28.8 4.9 39.1 14.6c10.4 9.7 15.5 23.2 15.5 40.5 0 3.7-.3 7.2-.8 10.4h-73.6c.6 4.7 2.7 8.6 6.3 11.6 3.6 3 7.4 4.5 11.6 4.5 4.2 0 7.3-.4 9.3-1.2 2-.8 3.5-1.7 4.5-2.5s2.2-2.2 3.7-4.1h35.5c-3.1 10.7-9.2 19.4-18.4 26-9.2 6.5-20.1 9.8-32.7 9.8zm13.9-76.8c-3.8-3.1-8.4-4.7-13.6-4.7-5.2 0-9.7 1.6-13.2 4.7-3.6 3.1-5.8 7.2-6.7 12.2h40.1c-.5-5-2.7-9.1-6.6-12.2zM1380.1 109v19.9c7.7-14.1 17.9-21.1 30.7-21.1v33.4h-8.1c-7.5 0-13.2 1.8-17 5.4-3.8 3.6-5.7 9.8-5.7 18.8V216h-32.8V109h32.9z"/></g></g></svg>