<svg xmlns="http://www.w3.org/2000/svg" viewBox="0 0 1485.31 416.44"><defs><style>.cls-1{isolation:isolate}.cls-11,.cls-2{fill:#fff}.cls-2{stroke:#eceae2;stroke-width:2.25px}.cls-2,.cls-3{stroke-miterlimit:10}.cls-2,.cls-3,.cls-4,.cls-5,.cls-7,.cls-8,.cls-9{fill-rule:evenodd}.cls-3{fill:#eceae2;stroke:#c9c9c9;stroke-width:2.07px}.cls-4,.cls-7{fill:#e3b909}.cls-5{fill:#c9c9c9}.cls-6,.cls-8{fill:#b87537}.cls-7{opacity:.4;mix-blend-mode:multiply}.cls-10,.cls-9{fill:#f9f9f6;opacity:.9}</style></defs><title>logo_happy_beer</title><g class="cls-1"><g id="objects"><path class="cls-2" d="M39.84 174.57c1.17-10.32-.33-20.78.83-31.09.83-7.32 1.65-14.8.08-22-3.89-17.8-21.36-30-26.05-47.61A35.88 35.88 0 0 1 14.58 56c1.8-7.13 7.37-14.5 14.7-14 6.9.5 11.31 7.6 13.4 14.2s3.31 14 8.38 18.71c10.07 9.36 27.18 1.81 39.71 7.48 5.95 2.69 10.15 8.06 14.64 12.8a9.93 9.93 0 0 0 4.26 3.07c6.5 1.82 10.4-8.76 17.14-9.23 4.87-.34 8.22 4.64 12.43 7.11 5.7 3.35 12.92 2 19.36 3.44 7.14 1.64 13.07 6.83 17.14 12.91s6.55 13.09 9 20c1.73 4.9 3.32 10.79.17 14.92-1.9 2.49-5.06 3.61-8.08 4.49-24 7-49.65 6.25-74 12-7.61 1.72-15.08 4.1-22.83 5.28-14 2.09-28.62 0-42 4.52"/><path class="cls-3" d="M36.57 168.83c1 5.43 19.48 54.25 29.07 106.88s17.19 115 17.54 124S83 413.63 89 414.29c23.18 2.51 52.47 1 83.17-6.38 23.8-5.72 46-12.63 49.7-16.87s-4.47-26.52-4.47-26.52 39.08-18.76 43.06-59.1S248 198.09 234.05 179.51c-18.88-25.2-44.64-8.16-44.64-8.16l-1.11-27.44s3-10.23-12.39-12.6-58.14 3-83.7 9.21c-20.57 5-42.35 11.51-49.1 16.11s-7.52 6.77-6.54 12.2zm153.81 34.67v-.2.2c.09 1 .69 5.11 3.88 3.51 3.6-1.81 2.54-16.94 3.33-19.11s10.64-9.9 19.2-1.89 18.52 37 22.47 59.1 5.1 52.8-1.93 69.92-15.25 14.97-18.27 12.88-10.27-1.91-10.27-1.91-6.36-24.92-10.77-53.88c-4.24-27.8-7.4-65.62-7.64-68.61z"/><path id="_Clipping_Path_" data-name="&amp;lt;Clipping Path&amp;gt;" class="cls-4" d="M211.16 362.81s-14.32 11.25-57.66 18.49c-54.59 9.12-67.71 3.63-67.71 3.63s-3.66-40.4-9.61-78.2S51.3 204.57 51.3 204.57s15.82-11.95 64.25-20c53.07-8.77 69.24-3.89 69.24-3.89s2.31 51.22 8.23 93.18 18.14 88.95 18.14 88.95z"/><path class="cls-5" d="M212.38 385.62c.24 1.31-.91 2.43-2 3.21-5.94 4.26-13.13 6.34-20.2 8.21q-19.52 5.16-39.39 8.86c-14.11 2.63-28.47 4.7-42.79 3.66a71 71 0 0 1-13.91-2.28c-1.42-.39-3.15-1.4-2.77-2.82.29-1.06 1.58-1.43 2.66-1.61l27.48-4.71 33.54-5.76c17.49-3 35-6 52.54-8.56 1.9-.27 4.46-.08 4.84 1.8z"/><path class="cls-5" d="M212.38 385.62c.24 1.31-.91 2.43-2 3.21-5.94 4.26-13.13 6.34-20.2 8.21q-19.52 5.16-39.39 8.86c-14.11 2.63-28.47 4.7-42.79 3.66a71 71 0 0 1-13.91-2.28c-1.42-.39-3.15-1.4-2.77-2.82.29-1.06 1.58-1.43 2.66-1.61l27.48-4.71 33.54-5.76c17.49-3 35-6 52.54-8.56 1.9-.27 4.46-.08 4.84 1.8z"/><path class="cls-4" d="M131.75 404.71c5.33-.62 11-1.5 18.29-2.87 13.08-2.44 26.23-5.39 39.1-8.79a85.12 85.12 0 0 0 12.9-4.22c-15.5 2.35-31.11 5-46.27 7.62L105 405.14q1.59.18 3.27.3a124.23 124.23 0 0 0 23.44-.74z"/><ellipse class="cls-6" cx="147.02" cy="369.15" rx="55.28" ry="5.05" transform="rotate(-10.16 147.057 369.2)"/><path class="cls-5" d="M190.12 179.81c-.06-2.95 3.32-6.33 6.47-7.37a29.6 29.6 0 0 1 12.64-1.83 26.72 26.72 0 0 1 13.88 5.28c-5.91-1.16-12.49-2.88-18.25-1.13-8.37 2.54-11.86 6.87-13.28 11.69-1.23-1.72-1.42-4.54-1.46-6.64zM213.36 339.6a51.65 51.65 0 0 0 3.32 11.72 5.2 5.2 0 0 0 1 1.74c1.59 1.58 4.27.68 6.22-.42a51.3 51.3 0 0 0 22.21-25.71 10.55 10.55 0 0 0 1-5.75q-4.1 4.38-8.56 8.4a34.26 34.26 0 0 1-9.11 6.39c-3.42 1.47-7.45 1.91-10.86.4-1.36-.6-2.94-1.51-4.22-.73s-1.23 2.53-1 3.96z"/><path class="cls-7" d="M51.3 204.57s7.3-5.51 27.14-11.55c13.41 58.69 25.32 118 32.76 177.78a126.51 126.51 0 0 1 .35 15.51c-19.94 1.05-25.75-1.38-25.75-1.38s-3.66-40.4-9.61-78.2S51.3 204.57 51.3 204.57zM134.26 184.52c22.46-1.49 50.53-3.79 50.53-3.79s2.31 51.22 8.23 93.18 18.14 88.91 18.14 88.91S195 373 168.07 378.4c-17.97-62.87-21.69-120.92-33.81-193.88z"/><path class="cls-8" d="M185.27 147.56c-12.67 7.37-22.15 26-30.28 29.82-11.83 5.62-25.7 2.25-38.62.05-15-2.54-30.87-3.23-44.87 2.67-6.52 2.75-12.58 7-16.34 13s-4.93 13.83-2 20.25a9 9 0 0 0 2.93 3.79c3.18 2.15 7.52.76 10.85-1.14 14-8 23.47-24.15 39.26-27.48 16.26-3.44 32.13 8.31 48.74 8.08 11.72-.16 23.17-4.47 29.1-14.58.92-1.57 1.76-5.75 1.54-12.14-.17-5.54.18-18.04-.31-22.32z"/><path class="cls-9" d="M173.29 150.27c4.73.63 5.4 6 5.24 10.69-.58 17.56.06 25.45.58 40.75 1.63 48.53 11.45 96.17 22.64 143.42.66 2.79 1.19 6.11-.77 8.2s-3.15 1.48-5.4-.23-3.47-4.42-4.48-7.05c-3.43-9-13-50.64-19.57-94.05a457.86 457.86 0 0 1-4.83-89.43c.11-1.98.3-13.14 6.59-12.3zM55.57 187.74c-3.45 1.92-2.36 6.59-.81 10.5 5.75 14.55 7.64 21.36 11.87 34.34 13.41 41.17 20.24 84 25.9 126.92.33 2.53.93 5.47 3.07 6.65s2.88.32 4.09-1.78 1.34-4.72 1.32-7.23c-.06-8.51-5.26-46.29-13.35-84.62a441.89 441.89 0 0 0-23.31-76.41c-.66-1.62-4.18-10.92-8.78-8.37z"/><circle class="cls-10" cx="80.92" cy="177.51" r="10.59" transform="rotate(-6.63 80.918 177.565)"/><circle class="cls-10" cx="97.5" cy="197.12" r="5.68" transform="rotate(-6.63 97.539 197.15)"/><path class="cls-2" d="M52.82 18.78a14.73 14.73 0 0 0 4-6.92A8.51 8.51 0 0 0 55 4.29a8.59 8.59 0 0 0-3.24-2.08c-4.78-1.81-10.48 0-14 3.65s-5 9-4.84 14.13c.05 1.36 0 3.07 1 3.89 7.55 5.62 14.55-.6 18.9-5.1zM7.45 1.13L7 1.16a6.74 6.74 0 0 0-5.16 3.66 6.12 6.12 0 0 0 0 5.83 4.74 4.74 0 0 0 4.43 2.25 7.15 7.15 0 0 0 5.75-2.77A5.88 5.88 0 0 0 12.57 4a5.77 5.77 0 0 0-5.12-2.87zM57.12 49.34a12.08 12.08 0 0 0 6.51 2.72 7 7 0 0 0 6.23-2.82 6.86 6.86 0 0 0 .42-6.24 11.14 11.14 0 0 0-4.23-4.87 9.88 9.88 0 0 0-3.42-1.55 7.06 7.06 0 0 0-5.1 13M91.23 52.42a4.4 4.4 0 0 0-4.89.14c-1.92 1.54-1.52 5.22.82 6l2.73.9a3.84 3.84 0 0 0 2.71-.93 3.77 3.77 0 0 0 .17-4.67 4.59 4.59 0 0 0-1.54-1.44z"/><path class="cls-11" d="M406.82 153.43h32.79V288h-32.79v-55.77h-52V288h-32.74V153.43h32.79v53.88h52zM474.69 274q-14.19-15.34-14.19-39.3t14.19-39.4q14.19-15.43 34.61-15.43T540.65 195v-14h32.79v107h-32.79v-15.5q-11.89 16.87-31.83 16.87T474.69 274zm58.86-19.94q7.09-6.9 7.09-19.56t-7.09-19.46a22.8 22.8 0 0 0-32.59.1q-7.1 6.9-7.09 19.56t7.13 19.49a22.8 22.8 0 0 0 32.59-.1zM635 195q10.93-15.14 31.35-15.15t34.61 15.43q14.19 15.44 14.19 39.4T700.94 274q-14.19 15.34-34.32 15.34T635 272.5V339h-32.8V181H635zm39.69 59.15q7.09-6.8 7.09-19.46t-7.09-19.56a22.8 22.8 0 0 0-32.59-.1q-7.1 6.81-7.09 19.46t7.09 19.56a22.8 22.8 0 0 0 32.59.1zM768.81 195q10.93-15.14 31.35-15.15t34.61 15.43Q849 210.76 849 234.73T834.77 274q-14.19 15.34-34.32 15.34t-31.64-16.84V339H736V181h32.79zm39.69 59.15q7.09-6.8 7.09-19.46t-7.09-19.56a22.8 22.8 0 0 0-32.59-.1q-7.1 6.81-7.09 19.46t7.09 19.56a22.8 22.8 0 0 0 32.59.1zM897.85 285.92L856.24 181h37.2l23.77 70 26.08-70h34.32l-68.26 158H875zM1050.27 153.43h58.48q20.51 0 32.69 10t12.18 25.31q0 22.82-26.65 30.87 13.61 1.92 21.67 11.31a32.82 32.82 0 0 1 8.05 22q0 16.11-11.79 25.6T1112 288h-61.74zm32.79 24.92v29.15h21.47q7.09 0 11.41-3.64t4.31-10.83q0-7.19-4.31-10.93t-11.41-3.74zm0 84.75h24.73a15.87 15.87 0 0 0 11.12-4q4.41-4 4.41-11.12t-4.22-11.31a14.8 14.8 0 0 0-10.93-4.22h-25.12zM1224.94 289.37q-23.39 0-38.35-15.05t-15-40q0-24.92 14.86-39.69t38.44-14.76q23.58 0 39.11 14.57t15.53 40.46a65.86 65.86 0 0 1-.77 10.35h-73.62a18.68 18.68 0 0 0 17.93 16.11q6.23 0 9.3-1.25a16.55 16.55 0 0 0 4.51-2.49 33.2 33.2 0 0 0 3.74-4.12h35.47a47 47 0 0 1-18.41 26q-13.76 9.87-32.74 9.87zm14-76.79a20.86 20.86 0 0 0-13.61-4.7 19.37 19.37 0 0 0-13.23 4.7 20.44 20.44 0 0 0-6.71 12.18h40.07a17.43 17.43 0 0 0-6.53-12.18zM1346.11 289.37q-23.39 0-38.35-15.05t-15-40q0-24.92 14.86-39.69t38.44-14.76q23.58 0 39.11 14.57t15.53 40.46a65.86 65.86 0 0 1-.77 10.35h-73.62a18.68 18.68 0 0 0 17.93 16.11q6.23 0 9.3-1.25a16.55 16.55 0 0 0 4.51-2.49 33.2 33.2 0 0 0 3.74-4.12h35.47a47 47 0 0 1-18.41 26q-13.76 9.87-32.74 9.87zm14-76.79a20.86 20.86 0 0 0-13.61-4.7 19.37 19.37 0 0 0-13.23 4.7 20.44 20.44 0 0 0-6.71 12.18h40.07a17.43 17.43 0 0 0-6.52-12.18zM1454.63 181v20q11.5-21.09 30.68-21.09v33.36h-8.05q-11.32 0-17 5.37t-5.66 18.79V288h-32.79V181z"/></g></g></svg>