<?xml version="1.0" encoding="utf-8"?>
<!-- Generator: Adobe Illustrator 21.0.0, SVG Export Plug-In . SVG Version: 6.00 Build 0)  -->
<svg version="1.1" xmlns="http://www.w3.org/2000/svg" xmlns:xlink="http://www.w3.org/1999/xlink" x="0px" y="0px"
	 viewBox="0 0 1410.7 268.2" style="enable-background:new 0 0 1410.7 268.2;" xml:space="preserve">
<style type="text/css">
	.st0{fill-rule:evenodd;clip-rule:evenodd;fill:#FFFFFF;stroke:#ECEAE2;stroke-width:2.2523;stroke-miterlimit:10;}
	.st1{fill-rule:evenodd;clip-rule:evenodd;fill:#ECEAE2;stroke:#C9C9C9;stroke-width:2.0664;stroke-miterlimit:10;}
	.st2{fill-rule:evenodd;clip-rule:evenodd;fill:#C9C9C9;}
	.st3{fill-rule:evenodd;clip-rule:evenodd;fill:#E3B909;}
	.st4{fill-rule:evenodd;clip-rule:evenodd;fill:#B87537;}
	.st5{opacity:0.4;fill-rule:evenodd;clip-rule:evenodd;fill:#E3B909;}
	.st6{opacity:0.9;fill-rule:evenodd;clip-rule:evenodd;fill:#F9F9F6;}
	.st7{fill:#FFFFFF;}
</style>
<g id="background">
</g>
<g id="objects">
	<g>
		<g>
			<path class="st0" d="M26,112.5c0.7-6.6-0.2-13.3,0.5-20c0.5-4.7,1.1-9.5,0-14.1C24.1,67,12.9,59.1,9.8,47.8
				c-1-3.7-1-7.7-0.1-11.5c1.2-4.6,4.7-9.3,9.4-9c4.4,0.3,7.3,4.9,8.6,9.1s2.1,9,5.4,12c6.5,6,17.5,1.2,25.5,4.8
				c3.8,1.7,6.5,5.2,9.4,8.2c0.8,0.8,1.6,1.7,2.7,2c4.2,1.2,6.7-5.6,11-5.9c3.1-0.2,5.3,3,8,4.6c3.7,2.1,8.3,1.3,12.4,2.2
				c4.6,1.1,8.4,4.4,11,8.3c2.6,3.9,4.2,8.4,5.8,12.8c1.1,3.1,2.1,6.9,0.1,9.6c-1.2,1.6-3.3,2.3-5.2,2.9c-15.4,4.5-31.9,4-47.5,7.7
				c-4.9,1.1-9.7,2.7-14.6,3.4c-9,1.3-18.4,0-27,2.9"/>
			<path class="st1" d="M23.9,108.8c0.6,3.5,12.5,34.8,18.7,68.6c6.2,33.8,11,73.9,11.3,79.6c0.2,5.8-0.1,8.9,3.8,9.4
				c14.9,1.6,33.7,0.6,53.4-4.1c15.3-3.7,29.6-8.1,31.9-10.8c2.4-2.7-2.9-17-2.9-17s25.1-12,27.7-38c2.6-25.9-8-68.9-17-80.9
				c-12.1-16.2-28.7-5.2-28.7-5.2l-0.7-17.6c0,0,1.9-6.6-8-8.1S76,86.7,59.6,90.6C46.4,93.9,32.4,98,28.1,101
				C23.8,103.9,23.3,105.3,23.9,108.8z M122.7,131.1c0-0.1,0-0.1,0-0.1S122.7,131,122.7,131.1c0.1,0.6,0.4,3.3,2.5,2.3
				c2.3-1.2,1.6-10.9,2.1-12.3c0.5-1.4,6.8-6.4,12.3-1.2c5.5,5.2,11.9,23.8,14.4,38c2.5,14.2,3.3,33.9-1.2,44.9
				c-4.5,11-9.8,9.6-11.7,8.3c-1.9-1.3-6.6-1.2-6.6-1.2s-4.1-16-6.9-34.6C124.8,157.3,122.8,133,122.7,131.1z"/>
			<g>
				<defs>
					<path id="XMLID_3_" d="M136,233.4c0,0-9.2,7.2-37,11.9c-35.1,5.9-43.5,2.3-43.5,2.3s-2.3-25.9-6.2-50.2s-16-65.6-16-65.6
						s10.2-7.7,41.3-12.8c34.1-5.6,44.5-2.5,44.5-2.5s1.5,32.9,5.3,59.8S136,233.4,136,233.4z"/>
				</defs>
				<use xlink:href="#XMLID_3_"  style="overflow:visible;fill-rule:evenodd;clip-rule:evenodd;fill:#E3B909;"/>
				<clipPath id="XMLID_2_">
					<use xlink:href="#XMLID_3_"  style="overflow:visible;"/>
				</clipPath>
			</g>
			<path class="st2" d="M136.8,248c0.2,0.8-0.6,1.6-1.3,2.1c-3.8,2.7-8.4,4.1-13,5.3c-8.4,2.2-16.8,4.1-25.3,5.7
				c-9.1,1.7-18.3,3-27.5,2.4c-3-0.2-6-0.7-8.9-1.5c-0.9-0.3-2-0.9-1.8-1.8c0.2-0.7,1-0.9,1.7-1c5.9-1,11.8-2,17.6-3
				c7.2-1.2,14.4-2.5,21.5-3.7c11.2-1.9,22.5-3.8,33.7-5.5C134.9,246.7,136.6,246.8,136.8,248z"/>
			<path class="st2" d="M136.8,248c0.2,0.8-0.6,1.6-1.3,2.1c-3.8,2.7-8.4,4.1-13,5.3c-8.4,2.2-16.8,4.1-25.3,5.7
				c-9.1,1.7-18.3,3-27.5,2.4c-3-0.2-6-0.7-8.9-1.5c-0.9-0.3-2-0.9-1.8-1.8c0.2-0.7,1-0.9,1.7-1c5.9-1,11.8-2,17.6-3
				c7.2-1.2,14.4-2.5,21.5-3.7c11.2-1.9,22.5-3.8,33.7-5.5C134.9,246.7,136.6,246.8,136.8,248z"/>
			<path class="st3" d="M85,260.3c3.4-0.4,7-1,11.7-1.8c8.4-1.6,16.8-3.5,25.1-5.6c2.9-0.8,5.7-1.6,8.3-2.7c-10,1.5-20,3.2-29.7,4.9
				l-32.6,5.6c0.7,0.1,1.4,0.1,2.1,0.2C74.5,261.1,79.4,261,85,260.3C85,260.3,85,260.3,85,260.3z"/>
			
				<ellipse transform="matrix(0.9843 -0.1764 0.1764 0.9843 -40.4093 20.454)" class="st4" cx="94.8" cy="237.5" rx="35.5" ry="3.2"/>
			<path class="st2" d="M122.5,115.9c0-1.9,2.1-4.1,4.2-4.7c2.8-0.9,5.2-1.4,8.1-1.2c3.6,0.3,6.6,1.6,8.9,3.4
				c-3.8-0.7-8-1.9-11.7-0.7c-5.4,1.6-7.6,4.4-8.5,7.5C122.6,119,122.5,117.2,122.5,115.9z"/>
			<path class="st2" d="M137.4,218.5c0.4,2.6,1.1,5.1,2.1,7.5c0.2,0.4,0.4,0.8,0.7,1.1c1,1,2.7,0.4,4-0.3
				c6.4-3.7,11.6-9.6,14.3-16.5c0.5-1.2,0.9-2.5,0.6-3.7c-1.8,1.9-3.6,3.7-5.5,5.4c-1.8,1.6-3.7,3.2-5.9,4.1c-2.2,0.9-4.8,1.2-7,0.3
				c-0.9-0.4-1.9-1-2.7-0.5C137.3,216.4,137.3,217.6,137.4,218.5z"/>
			<path class="st5" d="M33.3,131.8c0,0,4.7-3.5,17.4-7.4c8.6,37.7,16.3,75.8,21,114.2c0.4,3.3,0.2,6.7,0.2,10
				c-12.8,0.7-16.5-0.9-16.5-0.9s-2.3-25.9-6.2-50.2S33.3,131.8,33.3,131.8z"/>
			<path class="st5" d="M86.6,118.9c14.4-1,32.4-2.4,32.4-2.4s1.5,32.9,5.3,59.8c3.8,26.9,11.6,57.1,11.6,57.1s-10.4,6.6-27.7,10
				C96.8,203,94.4,165.8,86.6,118.9z"/>
			<g>
				<path class="st4" d="M119.4,95.2c-8.1,4.7-14.2,16.7-19.4,19.2c-7.6,3.6-16.5,1.4-24.8,0c-9.6-1.6-19.8-2.1-28.8,1.7
					c-4.2,1.8-8.1,4.5-10.5,8.4c-2.4,3.8-3.2,8.9-1.3,13c0.4,0.9,1,1.9,1.9,2.4c2,1.4,4.8,0.5,7-0.7c9-5.1,15.1-15.5,25.2-17.6
					c10.4-2.2,20.6,5.3,31.3,5.2c7.5-0.1,14.9-2.9,18.7-9.4c0.6-1,1.1-3.7,1-7.8C119.5,105.9,119.7,97.9,119.4,95.2z"/>
			</g>
			<path class="st6" d="M111.7,96.9c3,0.4,3.5,3.8,3.4,6.9c-0.4,11.3,0,16.3,0.4,26.2c1,31.2,7.4,61.8,14.5,92.1
				c0.4,1.8,0.8,3.9-0.5,5.3c-1.2,1.3-2,1-3.5-0.1s-2.2-2.8-2.9-4.5c-2.2-5.7-8.4-32.5-12.6-60.4c-2.7-17.6-4.1-37.1-3.1-57.4
				C107.5,103.5,107.6,96.4,111.7,96.9z"/>
			<path class="st6" d="M36.1,121c-2.2,1.2-1.5,4.2-0.5,6.7c3.7,9.3,4.9,13.7,7.6,22.1c8.6,26.4,13,54,16.6,81.5
				c0.2,1.6,0.6,3.5,2,4.3c1.4,0.7,1.8,0.2,2.6-1.1c0.8-1.3,0.9-3,0.8-4.6c0-5.5-3.4-29.7-8.6-54.3c-3.3-15.6-8.1-32.3-15-49.1
				C41.3,125.3,39,119.3,36.1,121z"/>
			
				<ellipse transform="matrix(0.9933 -0.1155 0.1155 0.9933 -12.8613 6.8136)" class="st6" cx="52.4" cy="114.4" rx="6.8" ry="6.8"/>
			<ellipse transform="matrix(0.9933 -0.1155 0.1155 0.9933 -14.2445 8.1274)" class="st6" cx="63" cy="127" rx="3.6" ry="3.6"/>
			<path class="st0" d="M34.3,12.5c1.2-1.2,2.2-2.7,2.6-4.4c0.4-1.7,0-3.6-1.2-4.9c-0.6-0.6-1.3-1-2.1-1.3c-3.1-1.2-6.7,0-9,2.3
				s-3.2,5.8-3.1,9.1c0,0.9,0,2,0.7,2.5C27,19.3,31.5,15.4,34.3,12.5z"/>
			<path class="st0" d="M5.2,1.1c-0.1,0-0.2,0-0.3,0C3.5,1.3,2.2,2.2,1.6,3.5C1,4.7,0.9,6.1,1.6,7.2c0.6,1,1.7,1.6,2.8,1.4
				c1.4,0,2.9-0.6,3.7-1.8c0.8-1.1,1-2.7,0.3-4C7.8,1.8,6.5,1.1,5.2,1.1z"/>
			<path class="st0" d="M37.1,32.1c1.2,0.9,2.7,1.7,4.2,1.7s3.2-0.5,4-1.8c0.8-1.2,0.8-2.7,0.3-4c-0.5-1.3-1.6-2.3-2.7-3.1
				c-0.7-0.5-1.4-0.8-2.2-1c-2.1-0.4-4.4,0.8-5.2,2.8c-0.8,2,0.1,4.5,1.9,5.5"/>
			<path class="st0" d="M59,34.1c-1-0.6-2.3-0.6-3.1,0.1c-1.2,1-1,3.3,0.5,3.8c0,0,1.2,0.4,1.8,0.6c0.7,0,1.3-0.2,1.7-0.6
				c0.8-0.8,0.7-2.1,0.1-3C59.7,34.6,59.4,34.3,59,34.1z"/>
		</g>
	</g>
	<g>
		<path class="st7" d="M332.3,81.4h32.8v134.6h-32.8v-55.8h-52v55.8h-32.8V81.4h32.8v53.9h52V81.4z"/>
		<path class="st7" d="M400.1,202c-9.5-10.2-14.2-23.3-14.2-39.3c0-16,4.7-29.1,14.2-39.4c9.5-10.3,21-15.4,34.6-15.4
			c13.6,0,24.1,5.1,31.3,15.1v-14h32.8v107h-32.8v-15.5c-7.9,11.2-18.5,16.9-31.8,16.9C421,217.3,409.6,212.2,400.1,202z M459,182
			c4.7-4.6,7.1-11.1,7.1-19.6c0-8.4-2.4-14.9-7.1-19.5c-4.7-4.5-10.2-6.8-16.3-6.8c-6.1,0-11.6,2.3-16.3,6.9
			c-4.7,4.6-7.1,11.1-7.1,19.6s2.4,14.9,7.1,19.5c4.7,4.5,10.2,6.8,16.3,6.8C448.8,188.9,454.3,186.6,459,182z"/>
		<path class="st7" d="M560.4,123c7.3-10.1,17.7-15.1,31.3-15.1c13.6,0,25.1,5.1,34.6,15.4c9.5,10.3,14.2,23.4,14.2,39.4
			c0,16-4.7,29.1-14.2,39.3c-9.5,10.2-20.9,15.3-34.3,15.3c-13.4,0-24-5.6-31.6-16.9v66.5h-32.8V109h32.8V123z M600.1,182.1
			c4.7-4.5,7.1-11,7.1-19.5s-2.4-15-7.1-19.6c-4.7-4.6-10.2-6.9-16.3-6.9s-11.6,2.3-16.3,6.8c-4.7,4.5-7.1,11-7.1,19.5
			c0,8.4,2.4,15,7.1,19.6c4.7,4.6,10.2,6.9,16.3,6.9S595.4,186.6,600.1,182.1z"/>
		<path class="st7" d="M694.3,123c7.3-10.1,17.7-15.1,31.3-15.1c13.6,0,25.1,5.1,34.6,15.4c9.5,10.3,14.2,23.4,14.2,39.4
			c0,16-4.7,29.1-14.2,39.3c-9.5,10.2-20.9,15.3-34.3,15.3s-24-5.6-31.6-16.9v66.5h-32.8V109h32.8V123z M733.9,182.1
			c4.7-4.5,7.1-11,7.1-19.5s-2.4-15-7.1-19.6c-4.7-4.6-10.2-6.9-16.3-6.9c-6.1,0-11.6,2.3-16.3,6.8c-4.7,4.5-7.1,11-7.1,19.5
			c0,8.4,2.4,15,7.1,19.6c4.7,4.6,10.2,6.9,16.3,6.9C723.8,188.9,729.2,186.6,733.9,182.1z"/>
		<path class="st7" d="M823.3,213.8L781.7,109h37.2l23.8,70l26.1-70H903l-68.3,158h-34.3L823.3,213.8z"/>
		<path class="st7" d="M975.7,81.4h58.5c13.7,0,24.6,3.3,32.7,10c8.1,6.6,12.2,15.1,12.2,25.3c0,15.2-8.9,25.5-26.7,30.9
			c9.1,1.3,16.3,5.1,21.7,11.3c5.4,6.3,8.1,13.6,8.1,22c0,10.7-3.9,19.3-11.8,25.6c-7.9,6.3-18.8,9.5-32.9,9.5h-61.7V81.4z
			 M1008.5,106.3v29.1h21.5c4.7,0,8.5-1.2,11.4-3.6c2.9-2.4,4.3-6,4.3-10.8s-1.4-8.4-4.3-10.9c-2.9-2.5-6.7-3.7-11.4-3.7H1008.5z
			 M1008.5,191h24.7c4.5,0,8.2-1.3,11.1-4c2.9-2.7,4.4-6.4,4.4-11.1c0-4.7-1.4-8.5-4.2-11.3c-2.8-2.8-6.5-4.2-10.9-4.2h-25.1V191z"
			/>
		<path class="st7" d="M1150.4,217.3c-15.6,0-28.4-5-38.3-15.1c-10-10-15-23.4-15-40c0-16.6,5-29.8,14.9-39.7
			c9.9-9.8,22.7-14.8,38.4-14.8c15.7,0,28.8,4.9,39.1,14.6c10.4,9.7,15.5,23.2,15.5,40.5c0,3.7-0.3,7.2-0.8,10.4h-73.6
			c0.6,4.7,2.7,8.6,6.3,11.6c3.6,3,7.4,4.5,11.6,4.5c4.2,0,7.3-0.4,9.3-1.2c2-0.8,3.5-1.7,4.5-2.5c1-0.8,2.2-2.2,3.7-4.1h35.5
			c-3.1,10.7-9.2,19.4-18.4,26C1174,214,1163,217.3,1150.4,217.3z M1164.4,140.5c-3.8-3.1-8.4-4.7-13.6-4.7c-5.2,0-9.7,1.6-13.2,4.7
			c-3.6,3.1-5.8,7.2-6.7,12.2h40.1C1170.4,147.7,1168.2,143.6,1164.4,140.5z"/>
		<path class="st7" d="M1271.6,217.3c-15.6,0-28.4-5-38.3-15.1c-10-10-15-23.4-15-40c0-16.6,5-29.8,14.9-39.7
			c9.9-9.8,22.7-14.8,38.4-14.8s28.8,4.9,39.1,14.6c10.4,9.7,15.5,23.2,15.5,40.5c0,3.7-0.3,7.2-0.8,10.4h-73.6
			c0.6,4.7,2.7,8.6,6.3,11.6c3.6,3,7.4,4.5,11.6,4.5c4.2,0,7.3-0.4,9.3-1.2c2-0.8,3.5-1.7,4.5-2.5c1-0.8,2.2-2.2,3.7-4.1h35.5
			c-3.1,10.7-9.2,19.4-18.4,26C1295.1,214,1284.2,217.3,1271.6,217.3z M1285.5,140.5c-3.8-3.1-8.4-4.7-13.6-4.7
			c-5.2,0-9.7,1.6-13.2,4.7c-3.6,3.1-5.8,7.2-6.7,12.2h40.1C1291.6,147.7,1289.4,143.6,1285.5,140.5z"/>
		<path class="st7" d="M1380.1,109v19.9c7.7-14.1,17.9-21.1,30.7-21.1v33.4h-8.1c-7.5,0-13.2,1.8-17,5.4c-3.8,3.6-5.7,9.8-5.7,18.8
			v50.6h-32.8V109H1380.1z"/>
	</g>
</g>
</svg>
